<svg width="1920" height="1080" viewBox="0 0 1920 1080" xmlns="http://www.w3.org/2000/svg"><rect width="1920" height="1080" fill="#99c1f1"/><path d="M 0,1080 C 0,1080 0,270 0,270 C 208.13333333333333,316.79999999999995 416.26666666666665,363.59999999999997 648,341 C 879.7333333333333,318.40000000000003 1135.0666666666668,226.4 1351,203 C 1566.9333333333332,179.6 1743.4666666666667,224.8 1920,270 C 1920,270 1920,1080 1920,1080 Z" fill="#24449c" opacity="0.15"/><path d="M 0,1080 C 0,1080 0,540 0,540 C 216.13333333333333,497.33333333333337 432.26666666666665,454.6666666666667 663,456 C 893.7333333333333,457.3333333333333 1139.0666666666666,502.66666666666663 1351,524 C 1562.9333333333334,545.3333333333334 1741.4666666666667,542.6666666666667 1920,540 C 1920,540 1920,1080 1920,1080 Z" fill="#24449c" opacity="0.3"/><path d="M 0,1080 C 0,1080 0,810 0,810 C 222.53333333333336,758.2666666666667 445.0666666666667,706.5333333333334 648,730 C 850.9333333333333,753.4666666666666 1034.2666666666667,852.1333333333334 1243,878 C 1451.7333333333333,903.8666666666666 1685.8666666666668,856.9333333333333 1920,810 C 1920,810 1920,1080 1920,1080 Z" fill="#24449c" opacity="0.44999999999999996"/></svg>